<?xml version="1.0" encoding="UTF-8"?>
<svg width="500" height="400" viewBox="0 0 500 400" fill="none" xmlns="http://www.w3.org/2000/svg">
  <!-- Process Flow -->
  <path d="M50 200 L150 200 L150 100 L350 100 L350 200 L450 200" stroke="#6C63FF" stroke-width="3" stroke-linecap="round" stroke-dasharray="5,5"/>
  
  <!-- Step 1: Input -->
  <circle cx="100" cy="200" r="40" fill="#6C63FF" opacity="0.1"/>
  <circle cx="100" cy="200" r="30" fill="#6C63FF" opacity="0.2"/>
  <circle cx="100" cy="200" r="20" fill="#6C63FF" opacity="0.3"/>
  <text x="100" y="205" text-anchor="middle" fill="white" font-size="14">1</text>
  
  <!-- Step 2: Analysis -->
  <circle cx="250" cy="100" r="40" fill="#4CAF50" opacity="0.1"/>
  <circle cx="250" cy="100" r="30" fill="#4CAF50" opacity="0.2"/>
  <circle cx="250" cy="100" r="20" fill="#4CAF50" opacity="0.3"/>
  <text x="250" y="105" text-anchor="middle" fill="white" font-size="14">2</text>
  
  <!-- Step 3: Insights -->
  <circle cx="400" cy="200" r="40" fill="#FF6B6B" opacity="0.1"/>
  <circle cx="400" cy="200" r="30" fill="#FF6B6B" opacity="0.2"/>
  <circle cx="400" cy="200" r="20" fill="#FF6B6B" opacity="0.3"/>
  <text x="400" y="205" text-anchor="middle" fill="white" font-size="14">3</text>
  
  <!-- Connecting Lines -->
  <path d="M140 200 L160 200" stroke="#6C63FF" stroke-width="2"/>
  <path d="M150 120 L150 80" stroke="#4CAF50" stroke-width="2"/>
  <path d="M340 200 L360 200" stroke="#FF6B6B" stroke-width="2"/>
  
  <!-- Icons -->
  <g transform="translate(85, 185)">
    <path d="M0 0 L10 0 L10 10 L0 10 Z" fill="white"/>
    <path d="M5 0 L5 10" stroke="white" stroke-width="2"/>
    <path d="M0 5 L10 5" stroke="white" stroke-width="2"/>
  </g>
  
  <g transform="translate(235, 85)">
    <path d="M0 0 L10 0 L10 10 L0 10 Z" fill="white"/>
    <path d="M2 5 L8 5" stroke="white" stroke-width="2"/>
    <path d="M5 2 L5 8" stroke="white" stroke-width="2"/>
  </g>
  
  <g transform="translate(385, 185)">
    <path d="M0 0 L10 0 L10 10 L0 10 Z" fill="white"/>
    <path d="M2 2 L8 8" stroke="white" stroke-width="2"/>
    <path d="M2 8 L8 2" stroke="white" stroke-width="2"/>
  </g>
</svg> 